<svg xmlns="http://www.w3.org/2000/svg" width="460" height="160" viewBox="0 0 460 160" role="img" font-family="-apple-system,BlinkMacSystemFont,'Segoe UI',Roboto,'Apple SD Gothic Neo','Malgun Gothic',sans-serif"><defs><linearGradient id="bgg" x1="0" y1="0" x2="0" y2="1"><stop offset="0" stop-color="#161b22"/><stop offset="1" stop-color="#0d1117"/></linearGradient></defs><rect x="0.5" y="0.5" width="459" height="159" rx="14" fill="url(#bgg)" stroke="#30363d"/><text x="20" y="30" font-family="-apple-system,BlinkMacSystemFont,'Segoe UI',Roboto,'Apple SD Gothic Neo','Malgun Gothic',sans-serif" font-size="13" font-weight="700" fill="#7d8590" letter-spacing="0.5">MONTHLY ACTIVITY</text><rect x="30.3" y="129.4" width="26.0" height="2.0" rx="3" fill="#2b6f6a"/><text x="43.3" y="144.0" text-anchor="middle" font-size="8" fill="#7d8590">25-09</text><rect x="77.0" y="121.6" width="26.0" height="8.4" rx="3" fill="#2b6f6a"/><rect x="123.7" y="128.7" width="26.0" height="2.0" rx="3" fill="#2b6f6a"/><text x="136.7" y="144.0" text-anchor="middle" font-size="8" fill="#7d8590">26-01</text><rect x="170.3" y="115.8" width="26.0" height="14.2" rx="3" fill="#2b6f6a"/><rect x="217.0" y="128.1" width="26.0" height="2.0" rx="3" fill="#2b6f6a"/><text x="230.0" y="144.0" text-anchor="middle" font-size="8" fill="#7d8590">26-03</text><rect x="263.7" y="119.7" width="26.0" height="10.3" rx="3" fill="#2b6f6a"/><rect x="310.3" y="90.1" width="26.0" height="39.9" rx="3" fill="#2b6f6a"/><text x="323.3" y="144.0" text-anchor="middle" font-size="8" fill="#7d8590">26-05</text><rect x="357.0" y="60.4" width="26.0" height="69.6" rx="3" fill="#2ee6d6"/><text x="370.0" y="56.4" text-anchor="middle" font-size="9.5" font-weight="700" fill="#2ee6d6">108</text><rect x="403.7" y="118.4" width="26.0" height="11.6" rx="3" fill="#2b6f6a"/><text x="416.7" y="144.0" text-anchor="middle" font-size="8" fill="#7d8590">26-07</text></svg>