<svg xmlns="http://www.w3.org/2000/svg" width="460" height="196" viewBox="0 0 460 196" role="img" font-family="-apple-system,BlinkMacSystemFont,'Segoe UI',Roboto,'Apple SD Gothic Neo','Malgun Gothic',sans-serif"><defs><linearGradient id="bgg" x1="0" y1="0" x2="0" y2="1"><stop offset="0" stop-color="#161b22"/><stop offset="1" stop-color="#0d1117"/></linearGradient></defs><rect x="0.5" y="0.5" width="459" height="195" rx="14" fill="url(#bgg)" stroke="#30363d"/><text x="20" y="30" font-family="-apple-system,BlinkMacSystemFont,'Segoe UI',Roboto,'Apple SD Gothic Neo','Malgun Gothic',sans-serif" font-size="13" font-weight="700" fill="#7d8590" letter-spacing="0.5">정복한 난관</text><text x="20" y="62" font-size="12" font-weight="600" fill="#e6edf3">만나는 그 순간</text><rect x="190" y="51" width="13" height="13" rx="3" fill="#f85149"/><rect x="206" y="51" width="13" height="13" rx="3" fill="#f85149"/><rect x="222" y="51" width="13" height="13" rx="3" fill="#f85149"/><rect x="238" y="51" width="13" height="13" rx="3" fill="#f85149"/><rect x="254" y="51" width="13" height="13" rx="3" fill="#f85149"/><rect x="270" y="51" width="13" height="13" rx="3" fill="#f85149"/><rect x="286" y="51" width="13" height="13" rx="3" fill="#f85149"/><rect x="302" y="51" width="13" height="13" rx="3" fill="#3fb950"/><text x="440" y="62" text-anchor="end" font-size="11" fill="#7d8590">8회</text><text x="20" y="90" font-size="12" font-weight="600" fill="#e6edf3">연속되는 수 2</text><rect x="190" y="79" width="13" height="13" rx="3" fill="#f85149"/><rect x="206" y="79" width="13" height="13" rx="3" fill="#f85149"/><rect x="222" y="79" width="13" height="13" rx="3" fill="#f85149"/><rect x="238" y="79" width="13" height="13" rx="3" fill="#f85149"/><rect x="254" y="79" width="13" height="13" rx="3" fill="#3fb950"/><rect x="270" y="79" width="13" height="13" rx="3" fill="#f85149"/><rect x="286" y="79" width="13" height="13" rx="3" fill="#f85149"/><rect x="302" y="79" width="13" height="13" rx="3" fill="#3fb950"/><text x="440" y="90" text-anchor="end" font-size="11" fill="#7d8590">8회</text><text x="20" y="118" font-size="12" font-weight="600" fill="#e6edf3">요일 맞추기</text><rect x="190" y="107" width="13" height="13" rx="3" fill="#d29922"/><rect x="206" y="107" width="13" height="13" rx="3" fill="#d29922"/><rect x="222" y="107" width="13" height="13" rx="3" fill="#d29922"/><rect x="238" y="107" width="13" height="13" rx="3" fill="#d29922"/><rect x="254" y="107" width="13" height="13" rx="3" fill="#f85149"/><rect x="270" y="107" width="13" height="13" rx="3" fill="#f85149"/><rect x="286" y="107" width="13" height="13" rx="3" fill="#3fb950"/><text x="440" y="118" text-anchor="end" font-size="11" fill="#7d8590">7회</text><text x="20" y="146" font-size="12" font-weight="600" fill="#e6edf3">바구니 안의 사탕 2</text><rect x="190" y="135" width="13" height="13" rx="3" fill="#f85149"/><rect x="206" y="135" width="13" height="13" rx="3" fill="#f85149"/><rect x="222" y="135" width="13" height="13" rx="3" fill="#f85149"/><rect x="238" y="135" width="13" height="13" rx="3" fill="#f85149"/><rect x="254" y="135" width="13" height="13" rx="3" fill="#f85149"/><rect x="270" y="135" width="13" height="13" rx="3" fill="#3fb950"/><text x="440" y="146" text-anchor="end" font-size="11" fill="#7d8590">6회</text><text x="20" y="174" font-size="12" font-weight="600" fill="#e6edf3">잔해물을 덮기 위한 사각형의…</text><rect x="190" y="163" width="13" height="13" rx="3" fill="#f85149"/><rect x="206" y="163" width="13" height="13" rx="3" fill="#f85149"/><rect x="222" y="163" width="13" height="13" rx="3" fill="#f85149"/><rect x="238" y="163" width="13" height="13" rx="3" fill="#f85149"/><rect x="254" y="163" width="13" height="13" rx="3" fill="#3fb950"/><rect x="270" y="163" width="13" height="13" rx="3" fill="#3fb950"/><text x="440" y="174" text-anchor="end" font-size="11" fill="#7d8590">6회</text></svg>