<svg xmlns="http://www.w3.org/2000/svg" width="454" height="150" viewBox="0 0 454 150" role="img" font-family="-apple-system,BlinkMacSystemFont,'Segoe UI',Roboto,'Apple SD Gothic Neo','Malgun Gothic',sans-serif"><defs><linearGradient id="bgg" x1="0" y1="0" x2="0" y2="1"><stop offset="0" stop-color="#161b22"/><stop offset="1" stop-color="#0d1117"/></linearGradient><linearGradient id="flame" x1="0" y1="0" x2="0" y2="1"><stop offset="0" stop-color="#ffb84d"/><stop offset="1" stop-color="#ff6b35"/></linearGradient></defs><rect x="0.5" y="0.5" width="453" height="149" rx="14" fill="url(#bgg)" stroke="#30363d"/><path transform="translate(36 36) scale(1.7)" fill="url(#flame)" d="M12 0c2 4 6 5 6 10a6 6 0 1 1-12 0c0-2 1-3 2-4 0 2 1 3 2 3 0-3-2-4 0-9z"/><text x="56" y="86" text-anchor="middle" font-size="44" font-weight="800" fill="#e6edf3">8</text><text x="56" y="106" text-anchor="middle" font-size="11" font-weight="600" fill="#ffb84d">DAY STREAK</text><rect x="150" y="44" width="13" height="13" rx="3" fill="#161b22"/><rect x="150" y="60" width="13" height="13" rx="3" fill="#161b22"/><rect x="150" y="76" width="13" height="13" rx="3" fill="#161b22"/><rect x="150" y="92" width="13" height="13" rx="3" fill="#161b22"/><rect x="150" y="108" width="13" height="13" rx="3" fill="#161b22"/><rect x="150" y="124" width="13" height="13" rx="3" fill="#161b22"/><rect x="150" y="140" width="13" height="13" rx="3" fill="#161b22"/><rect x="166" y="44" width="13" height="13" rx="3" fill="#161b22"/><rect x="166" y="60" width="13" height="13" rx="3" fill="#161b22"/><rect x="166" y="76" width="13" height="13" rx="3" fill="#161b22"/><rect x="166" y="92" width="13" height="13" rx="3" fill="#161b22"/><rect x="166" y="108" width="13" height="13" rx="3" fill="#161b22"/><rect x="166" y="124" width="13" height="13" rx="3" fill="#161b22"/><rect x="166" y="140" width="13" height="13" rx="3" fill="#161b22"/><rect x="182" y="44" width="13" height="13" rx="3" fill="#161b22"/><rect x="182" y="60" width="13" height="13" rx="3" fill="#161b22"/><rect x="182" y="76" width="13" height="13" rx="3" fill="#161b22"/><rect x="182" y="92" width="13" height="13" rx="3" fill="#161b22"/><rect x="182" y="108" width="13" height="13" rx="3" fill="#161b22"/><rect x="182" y="124" width="13" height="13" rx="3" fill="#161b22"/><rect x="182" y="140" width="13" height="13" rx="3" fill="#161b22"/><rect x="198" y="44" width="13" height="13" rx="3" fill="#161b22"/><rect x="198" y="60" width="13" height="13" rx="3" fill="#161b22"/><rect x="198" y="76" width="13" height="13" rx="3" fill="#161b22"/><rect x="198" y="92" width="13" height="13" rx="3" fill="#161b22"/><rect x="198" y="108" width="13" height="13" rx="3" fill="#161b22"/><rect x="198" y="124" width="13" height="13" rx="3" fill="#161b22"/><rect x="198" y="140" width="13" height="13" rx="3" fill="#161b22"/><rect x="214" y="44" width="13" height="13" rx="3" fill="#161b22"/><rect x="214" y="60" width="13" height="13" rx="3" fill="#161b22"/><rect x="214" y="76" width="13" height="13" rx="3" fill="#161b22"/><rect x="214" y="92" width="13" height="13" rx="3" fill="#161b22"/><rect x="214" y="108" width="13" height="13" rx="3" fill="#161b22"/><rect x="214" y="124" width="13" height="13" rx="3" fill="#161b22"/><rect x="214" y="140" width="13" height="13" rx="3" fill="#161b22"/><rect x="230" y="44" width="13" height="13" rx="3" fill="#161b22"/><rect x="230" y="60" width="13" height="13" rx="3" fill="#161b22"/><rect x="230" y="76" width="13" height="13" rx="3" fill="#161b22"/><rect x="230" y="92" width="13" height="13" rx="3" fill="#161b22"/><rect x="230" y="108" width="13" height="13" rx="3" fill="#161b22"/><rect x="230" y="124" width="13" height="13" rx="3" fill="#161b22"/><rect x="230" y="140" width="13" height="13" rx="3" fill="#161b22"/><rect x="246" y="44" width="13" height="13" rx="3" fill="#161b22"/><rect x="246" y="60" width="13" height="13" rx="3" fill="#161b22"/><rect x="246" y="76" width="13" height="13" rx="3" fill="#161b22"/><rect x="246" y="92" width="13" height="13" rx="3" fill="#161b22"/><rect x="246" y="108" width="13" height="13" rx="3" fill="#161b22"/><rect x="246" y="124" width="13" height="13" rx="3" fill="#161b22"/><rect x="246" y="140" width="13" height="13" rx="3" fill="#161b22"/><rect x="262" y="44" width="13" height="13" rx="3" fill="#161b22"/><rect x="262" y="60" width="13" height="13" rx="3" fill="#161b22"/><rect x="262" y="76" width="13" height="13" rx="3" fill="#161b22"/><rect x="262" y="92" width="13" height="13" rx="3" fill="#161b22"/><rect x="262" y="108" width="13" height="13" rx="3" fill="#161b22"/><rect x="262" y="124" width="13" height="13" rx="3" fill="#161b22"/><rect x="262" y="140" width="13" height="13" rx="3" fill="#161b22"/><rect x="278" y="44" width="13" height="13" rx="3" fill="#161b22"/><rect x="278" y="60" width="13" height="13" rx="3" fill="#161b22"/><rect x="278" y="76" width="13" height="13" rx="3" fill="#161b22"/><rect x="278" y="92" width="13" height="13" rx="3" fill="#161b22"/><rect x="278" y="108" width="13" height="13" rx="3" fill="#161b22"/><rect x="278" y="124" width="13" height="13" rx="3" fill="#161b22"/><rect x="278" y="140" width="13" height="13" rx="3" fill="#161b22"/><rect x="294" y="44" width="13" height="13" rx="3" fill="#161b22"/><rect x="294" y="60" width="13" height="13" rx="3" fill="#161b22"/><rect x="294" y="76" width="13" height="13" rx="3" fill="#161b22"/><rect x="294" y="92" width="13" height="13" rx="3" fill="#161b22"/><rect x="294" y="108" width="13" height="13" rx="3" fill="#161b22"/><rect x="294" y="124" width="13" height="13" rx="3" fill="#161b22"/><rect x="294" y="140" width="13" height="13" rx="3" fill="#161b22"/><rect x="310" y="44" width="13" height="13" rx="3" fill="#0b3d3a"/><rect x="310" y="60" width="13" height="13" rx="3" fill="#161b22"/><rect x="310" y="76" width="13" height="13" rx="3" fill="#0b3d3a"/><rect x="310" y="92" width="13" height="13" rx="3" fill="#161b22"/><rect x="310" y="108" width="13" height="13" rx="3" fill="#161b22"/><rect x="310" y="124" width="13" height="13" rx="3" fill="#0b3d3a"/><rect x="310" y="140" width="13" height="13" rx="3" fill="#161b22"/><rect x="326" y="44" width="13" height="13" rx="3" fill="#13746c"/><rect x="326" y="60" width="13" height="13" rx="3" fill="#13746c"/><rect x="326" y="76" width="13" height="13" rx="3" fill="#161b22"/><rect x="326" y="92" width="13" height="13" rx="3" fill="#0b3d3a"/><rect x="326" y="108" width="13" height="13" rx="3" fill="#161b22"/><rect x="326" y="124" width="13" height="13" rx="3" fill="#13746c"/><rect x="326" y="140" width="13" height="13" rx="3" fill="#161b22"/><rect x="342" y="44" width="13" height="13" rx="3" fill="#161b22"/><rect x="342" y="60" width="13" height="13" rx="3" fill="#13746c"/><rect x="342" y="76" width="13" height="13" rx="3" fill="#0b3d3a"/><rect x="342" y="92" width="13" height="13" rx="3" fill="#161b22"/><rect x="342" y="108" width="13" height="13" rx="3" fill="#161b22"/><rect x="342" y="124" width="13" height="13" rx="3" fill="#0b3d3a"/><rect x="342" y="140" width="13" height="13" rx="3" fill="#161b22"/><rect x="358" y="44" width="13" height="13" rx="3" fill="#0b3d3a"/><rect x="358" y="60" width="13" height="13" rx="3" fill="#161b22"/><rect x="358" y="76" width="13" height="13" rx="3" fill="#0b3d3a"/><rect x="358" y="92" width="13" height="13" rx="3" fill="#161b22"/><rect x="358" y="108" width="13" height="13" rx="3" fill="#161b22"/><rect x="358" y="124" width="13" height="13" rx="3" fill="#0b3d3a"/><rect x="358" y="140" width="13" height="13" rx="3" fill="#161b22"/><rect x="374" y="44" width="13" height="13" rx="3" fill="#161b22"/><rect x="374" y="60" width="13" height="13" rx="3" fill="#0b3d3a"/><rect x="374" y="76" width="13" height="13" rx="3" fill="#161b22"/><rect x="374" y="92" width="13" height="13" rx="3" fill="#161b22"/><rect x="374" y="108" width="13" height="13" rx="3" fill="#161b22"/><rect x="374" y="124" width="13" height="13" rx="3" fill="#161b22"/><rect x="374" y="140" width="13" height="13" rx="3" fill="#161b22"/><rect x="390" y="44" width="13" height="13" rx="3" fill="#0b3d3a"/><rect x="390" y="60" width="13" height="13" rx="3" fill="#0b3d3a"/><rect x="390" y="76" width="13" height="13" rx="3" fill="#161b22"/><rect x="390" y="92" width="13" height="13" rx="3" fill="#13746c"/><rect x="390" y="108" width="13" height="13" rx="3" fill="#1fb3a6"/><rect x="390" y="124" width="13" height="13" rx="3" fill="#0b3d3a"/><rect x="390" y="140" width="13" height="13" rx="3" fill="#161b22"/><rect x="406" y="44" width="13" height="13" rx="3" fill="#13746c"/><rect x="406" y="60" width="13" height="13" rx="3" fill="#2ee6d6"/><rect x="406" y="76" width="13" height="13" rx="3" fill="#13746c"/><rect x="406" y="92" width="13" height="13" rx="3" fill="#0b3d3a"/><rect x="406" y="108" width="13" height="13" rx="3" fill="#13746c"/><rect x="406" y="124" width="13" height="13" rx="3" fill="#0b3d3a"/><rect x="406" y="140" width="13" height="13" rx="3" fill="#13746c"/><rect x="422" y="44" width="13" height="13" rx="3" fill="#13746c"/><rect x="422" y="60" width="13" height="13" rx="3" fill="#0b3d3a"/><text x="308" y="175" font-size="9" fill="#7d8590">less</text><rect x="334" y="166" width="13" height="13" rx="3" fill="#161b22"/><rect x="350" y="166" width="13" height="13" rx="3" fill="#0b3d3a"/><rect x="366" y="166" width="13" height="13" rx="3" fill="#13746c"/><rect x="382" y="166" width="13" height="13" rx="3" fill="#1fb3a6"/><rect x="398" y="166" width="13" height="13" rx="3" fill="#2ee6d6"/><text x="416" y="175" font-size="9" fill="#7d8590">more</text></svg>