<svg xmlns="http://www.w3.org/2000/svg" width="220" height="184" viewBox="0 0 220 184" role="img" font-family="-apple-system,BlinkMacSystemFont,'Segoe UI',Roboto,'Apple SD Gothic Neo','Malgun Gothic',sans-serif"><defs><linearGradient id="bgg" x1="0" y1="0" x2="0" y2="1"><stop offset="0" stop-color="#161b22"/><stop offset="1" stop-color="#0d1117"/></linearGradient></defs><rect x="0.5" y="0.5" width="219" height="183" rx="14" fill="url(#bgg)" stroke="#30363d"/><text x="20" y="30" font-family="-apple-system,BlinkMacSystemFont,'Segoe UI',Roboto,'Apple SD Gothic Neo','Malgun Gothic',sans-serif" font-size="13" font-weight="700" fill="#7d8590" letter-spacing="0.5">BY TYPE</text><text x="20" y="54" font-size="12" font-weight="600" fill="#e6edf3">Problem</text><text x="200" y="54" text-anchor="end" font-size="11" fill="#7d8590">69/810</text><rect x="20" y="58" width="180" height="8" rx="4.0" fill="#21262d"/><rect x="20" y="58" width="15.3" height="8" rx="4.0" fill="#2ee6d6"/><text x="20" y="80" font-size="9.5" fill="#7d8590">9%</text><text x="20" y="98" font-size="12" font-weight="600" fill="#e6edf3">Test</text><text x="200" y="98" text-anchor="end" font-size="11" fill="#7d8590">11/222</text><rect x="20" y="102" width="180" height="8" rx="4.0" fill="#21262d"/><rect x="20" y="102" width="8.9" height="8" rx="4.0" fill="#d29922"/><text x="20" y="124" font-size="9.5" fill="#7d8590">5%</text><text x="20" y="142" font-size="12" font-weight="600" fill="#e6edf3">Introduction</text><text x="200" y="142" text-anchor="end" font-size="11" fill="#7d8590">44/405</text><rect x="20" y="146" width="180" height="8" rx="4.0" fill="#21262d"/><rect x="20" y="146" width="19.6" height="8" rx="4.0" fill="#a371f7"/><text x="20" y="168" font-size="9.5" fill="#7d8590">11%</text></svg>