<svg xmlns="http://www.w3.org/2000/svg" width="460" height="218" viewBox="0 0 460 218" role="img" font-family="-apple-system,BlinkMacSystemFont,'Segoe UI',Roboto,'Apple SD Gothic Neo','Malgun Gothic',sans-serif"><defs><linearGradient id="bgg" x1="0" y1="0" x2="0" y2="1"><stop offset="0" stop-color="#161b22"/><stop offset="1" stop-color="#0d1117"/></linearGradient></defs><rect x="0.5" y="0.5" width="459" height="217" rx="14" fill="url(#bgg)" stroke="#30363d"/><text x="20" y="30" font-family="-apple-system,BlinkMacSystemFont,'Segoe UI',Roboto,'Apple SD Gothic Neo','Malgun Gothic',sans-serif" font-size="13" font-weight="700" fill="#7d8590" letter-spacing="0.5">PLATFORMS</text><text x="440" y="30" text-anchor="end" font-size="22" font-weight="800" fill="#e6edf3">262<tspan font-size="11" font-weight="600" fill="#7d8590"> total</tspan></text><text x="20" y="49" font-size="11.5" font-weight="600" fill="#e6edf3">BaekJoon</text><text x="440" y="49" text-anchor="end" font-size="11" fill="#7d8590">84</text><rect x="20" y="52" width="420" height="6" rx="3.0" fill="#21262d"/><rect x="20" y="52" width="356.4" height="6" rx="3.0" fill="#2ee6d6"/><text x="20" y="76" font-size="11.5" font-weight="600" fill="#e6edf3">SW Expert Academy</text><text x="440" y="76" text-anchor="end" font-size="11" fill="#7d8590">42</text><rect x="20" y="79" width="420" height="6" rx="3.0" fill="#21262d"/><rect x="20" y="79" width="178.2" height="6" rx="3.0" fill="#39d98a"/><text x="20" y="103" font-size="11.5" font-weight="600" fill="#e6edf3">Codetree</text><text x="440" y="103" text-anchor="end" font-size="11" fill="#7d8590">99</text><rect x="20" y="106" width="420" height="6" rx="3.0" fill="#21262d"/><rect x="20" y="106" width="420.0" height="6" rx="3.0" fill="#58a6ff"/><text x="20" y="130" font-size="11.5" font-weight="600" fill="#e6edf3">Algospot</text><text x="440" y="130" text-anchor="end" font-size="11" fill="#7d8590">17</text><rect x="20" y="133" width="420" height="6" rx="3.0" fill="#21262d"/><rect x="20" y="133" width="72.1" height="6" rx="3.0" fill="#d29922"/><text x="20" y="157" font-size="11.5" font-weight="600" fill="#e6edf3">Programmers</text><text x="440" y="157" text-anchor="end" font-size="11" fill="#7d8590">19</text><rect x="20" y="160" width="420" height="6" rx="3.0" fill="#21262d"/><rect x="20" y="160" width="80.6" height="6" rx="3.0" fill="#a371f7"/><text x="20" y="184" font-size="11.5" font-weight="600" fill="#e6edf3">Softeer</text><text x="440" y="184" text-anchor="end" font-size="11" fill="#7d8590">1</text><rect x="20" y="187" width="420" height="6" rx="3.0" fill="#21262d"/><rect x="20" y="187" width="4.2" height="6" rx="3.0" fill="#f778ba"/></svg>